<mxfile host="app.diagrams.net" agent="Mozilla/5.0 (X11; Linux x86_64; rv:130.0) Gecko/20100101 Firefox/130.0" version="24.7.16">
  <diagram name="Page-1" id="ZqWvffdw68QdWxJyanjV">
    <mxGraphModel dx="798" dy="897" grid="1" gridSize="10" guides="1" tooltips="1" connect="1" arrows="1" fold="1" page="1" pageScale="1" pageWidth="850" pageHeight="1100" math="0" shadow="0">
      <root>
        <mxCell id="0" />
        <mxCell id="1" parent="0" />
        <mxCell id="GIsVJO59LhnoSm2gZh34-3" value="" style="edgeStyle=orthogonalEdgeStyle;rounded=0;orthogonalLoop=1;jettySize=auto;html=1;" parent="1" source="GIsVJO59LhnoSm2gZh34-1" target="GIsVJO59LhnoSm2gZh34-2" edge="1">
          <mxGeometry relative="1" as="geometry" />
        </mxCell>
        <mxCell id="GIsVJO59LhnoSm2gZh34-1" value="START" style="ellipse;whiteSpace=wrap;html=1;" parent="1" vertex="1">
          <mxGeometry x="365" y="10" width="120" height="80" as="geometry" />
        </mxCell>
        <mxCell id="GIsVJO59LhnoSm2gZh34-5" value="" style="edgeStyle=orthogonalEdgeStyle;rounded=0;orthogonalLoop=1;jettySize=auto;html=1;" parent="1" source="GIsVJO59LhnoSm2gZh34-2" edge="1">
          <mxGeometry relative="1" as="geometry">
            <mxPoint x="425" y="250" as="targetPoint" />
          </mxGeometry>
        </mxCell>
        <mxCell id="GIsVJO59LhnoSm2gZh34-2" value="Declare Scanner" style="whiteSpace=wrap;html=1;glass=0;" parent="1" vertex="1">
          <mxGeometry x="365" y="140" width="120" height="60" as="geometry" />
        </mxCell>
        <mxCell id="GIsVJO59LhnoSm2gZh34-7" value="" style="edgeStyle=orthogonalEdgeStyle;rounded=0;orthogonalLoop=1;jettySize=auto;html=1;" parent="1" edge="1">
          <mxGeometry relative="1" as="geometry">
            <mxPoint x="425" y="310" as="sourcePoint" />
            <mxPoint x="425" y="360" as="targetPoint" />
          </mxGeometry>
        </mxCell>
        <mxCell id="GIsVJO59LhnoSm2gZh34-9" value="" style="edgeStyle=orthogonalEdgeStyle;rounded=0;orthogonalLoop=1;jettySize=auto;html=1;" parent="1" edge="1">
          <mxGeometry relative="1" as="geometry">
            <mxPoint x="425" y="420" as="sourcePoint" />
            <mxPoint x="425" y="480" as="targetPoint" />
          </mxGeometry>
        </mxCell>
        <mxCell id="GIsVJO59LhnoSm2gZh34-11" value="" style="edgeStyle=orthogonalEdgeStyle;rounded=0;orthogonalLoop=1;jettySize=auto;html=1;" parent="1" edge="1">
          <mxGeometry relative="1" as="geometry">
            <mxPoint x="425" y="540" as="sourcePoint" />
            <mxPoint x="425" y="600" as="targetPoint" />
          </mxGeometry>
        </mxCell>
        <mxCell id="GIsVJO59LhnoSm2gZh34-13" value="" style="edgeStyle=orthogonalEdgeStyle;rounded=0;orthogonalLoop=1;jettySize=auto;html=1;" parent="1" edge="1">
          <mxGeometry relative="1" as="geometry">
            <mxPoint x="425" y="660" as="sourcePoint" />
            <mxPoint x="425" y="720" as="targetPoint" />
          </mxGeometry>
        </mxCell>
        <mxCell id="GIsVJO59LhnoSm2gZh34-15" value="" style="edgeStyle=orthogonalEdgeStyle;rounded=0;orthogonalLoop=1;jettySize=auto;html=1;" parent="1" edge="1">
          <mxGeometry relative="1" as="geometry">
            <mxPoint x="425" y="780" as="sourcePoint" />
            <mxPoint x="425" y="840" as="targetPoint" />
          </mxGeometry>
        </mxCell>
        <mxCell id="GIsVJO59LhnoSm2gZh34-17" value="" style="edgeStyle=orthogonalEdgeStyle;rounded=0;orthogonalLoop=1;jettySize=auto;html=1;" parent="1" edge="1">
          <mxGeometry relative="1" as="geometry">
            <mxPoint x="425" y="900" as="sourcePoint" />
            <mxPoint x="425" y="960" as="targetPoint" />
          </mxGeometry>
        </mxCell>
        <mxCell id="GIsVJO59LhnoSm2gZh34-21" value="" style="edgeStyle=orthogonalEdgeStyle;rounded=0;orthogonalLoop=1;jettySize=auto;html=1;" parent="1" target="GIsVJO59LhnoSm2gZh34-20" edge="1">
          <mxGeometry relative="1" as="geometry">
            <mxPoint x="425" y="1020" as="sourcePoint" />
          </mxGeometry>
        </mxCell>
        <mxCell id="GIsVJO59LhnoSm2gZh34-47" value="" style="edgeStyle=orthogonalEdgeStyle;rounded=0;orthogonalLoop=1;jettySize=auto;html=1;" parent="1" source="GIsVJO59LhnoSm2gZh34-20" target="GIsVJO59LhnoSm2gZh34-46" edge="1">
          <mxGeometry relative="1" as="geometry" />
        </mxCell>
        <mxCell id="GIsVJO59LhnoSm2gZh34-49" value="" style="edgeStyle=orthogonalEdgeStyle;rounded=0;orthogonalLoop=1;jettySize=auto;html=1;" parent="1" source="GIsVJO59LhnoSm2gZh34-20" target="GIsVJO59LhnoSm2gZh34-48" edge="1">
          <mxGeometry relative="1" as="geometry" />
        </mxCell>
        <mxCell id="GIsVJO59LhnoSm2gZh34-20" value="&lt;font style=&quot;font-size: 10px;&quot;&gt;Operate the scores by multiplying all of them (Quiz Score * Assignment score * Exam score&lt;/font&gt;" style="whiteSpace=wrap;html=1;" parent="1" vertex="1">
          <mxGeometry x="365" y="1080" width="120" height="60" as="geometry" />
        </mxCell>
        <mxCell id="GIsVJO59LhnoSm2gZh34-33" value="" style="edgeStyle=orthogonalEdgeStyle;rounded=0;orthogonalLoop=1;jettySize=auto;html=1;" parent="1" source="GIsVJO59LhnoSm2gZh34-25" target="GIsVJO59LhnoSm2gZh34-32" edge="1">
          <mxGeometry relative="1" as="geometry" />
        </mxCell>
        <mxCell id="GIsVJO59LhnoSm2gZh34-25" value="&lt;font style=&quot;font-size: 11px;&quot;&gt;Print &quot;Input Name&quot;&lt;/font&gt;" style="shape=parallelogram;perimeter=parallelogramPerimeter;whiteSpace=wrap;html=1;fixedSize=1;" parent="1" vertex="1">
          <mxGeometry x="365" y="250" width="120" height="60" as="geometry" />
        </mxCell>
        <mxCell id="GIsVJO59LhnoSm2gZh34-35" value="" style="edgeStyle=orthogonalEdgeStyle;rounded=0;orthogonalLoop=1;jettySize=auto;html=1;" parent="1" source="GIsVJO59LhnoSm2gZh34-26" target="GIsVJO59LhnoSm2gZh34-34" edge="1">
          <mxGeometry relative="1" as="geometry" />
        </mxCell>
        <mxCell id="GIsVJO59LhnoSm2gZh34-26" value="Print &quot;Input NIM&quot; " style="shape=parallelogram;perimeter=parallelogramPerimeter;whiteSpace=wrap;html=1;fixedSize=1;" parent="1" vertex="1">
          <mxGeometry x="365" y="360" width="120" height="60" as="geometry" />
        </mxCell>
        <mxCell id="GIsVJO59LhnoSm2gZh34-37" value="" style="edgeStyle=orthogonalEdgeStyle;rounded=0;orthogonalLoop=1;jettySize=auto;html=1;" parent="1" source="GIsVJO59LhnoSm2gZh34-27" target="GIsVJO59LhnoSm2gZh34-36" edge="1">
          <mxGeometry relative="1" as="geometry" />
        </mxCell>
        <mxCell id="GIsVJO59LhnoSm2gZh34-27" value="Print &quot;Input Class" style="shape=parallelogram;perimeter=parallelogramPerimeter;whiteSpace=wrap;html=1;fixedSize=1;" parent="1" vertex="1">
          <mxGeometry x="365" y="480" width="120" height="60" as="geometry" />
        </mxCell>
        <mxCell id="GIsVJO59LhnoSm2gZh34-39" value="" style="edgeStyle=orthogonalEdgeStyle;rounded=0;orthogonalLoop=1;jettySize=auto;html=1;" parent="1" source="GIsVJO59LhnoSm2gZh34-28" target="GIsVJO59LhnoSm2gZh34-38" edge="1">
          <mxGeometry relative="1" as="geometry" />
        </mxCell>
        <mxCell id="GIsVJO59LhnoSm2gZh34-28" value="Print &quot;Input ID Number&quot;" style="shape=parallelogram;perimeter=parallelogramPerimeter;whiteSpace=wrap;html=1;fixedSize=1;" parent="1" vertex="1">
          <mxGeometry x="365" y="600" width="120" height="60" as="geometry" />
        </mxCell>
        <mxCell id="GIsVJO59LhnoSm2gZh34-41" value="" style="edgeStyle=orthogonalEdgeStyle;rounded=0;orthogonalLoop=1;jettySize=auto;html=1;" parent="1" source="GIsVJO59LhnoSm2gZh34-29" target="GIsVJO59LhnoSm2gZh34-40" edge="1">
          <mxGeometry relative="1" as="geometry" />
        </mxCell>
        <mxCell id="GIsVJO59LhnoSm2gZh34-29" value="Print &quot;Input Quiz Score&quot;" style="shape=parallelogram;perimeter=parallelogramPerimeter;whiteSpace=wrap;html=1;fixedSize=1;" parent="1" vertex="1">
          <mxGeometry x="365" y="720" width="120" height="60" as="geometry" />
        </mxCell>
        <mxCell id="GIsVJO59LhnoSm2gZh34-43" value="" style="edgeStyle=orthogonalEdgeStyle;rounded=0;orthogonalLoop=1;jettySize=auto;html=1;" parent="1" source="GIsVJO59LhnoSm2gZh34-30" target="GIsVJO59LhnoSm2gZh34-42" edge="1">
          <mxGeometry relative="1" as="geometry" />
        </mxCell>
        <mxCell id="GIsVJO59LhnoSm2gZh34-30" value="&lt;font style=&quot;font-size: 12px;&quot;&gt;Print &quot;Input Assignment Score&quot;&lt;/font&gt;" style="shape=parallelogram;perimeter=parallelogramPerimeter;whiteSpace=wrap;html=1;fixedSize=1;" parent="1" vertex="1">
          <mxGeometry x="365" y="840" width="120" height="60" as="geometry" />
        </mxCell>
        <mxCell id="GIsVJO59LhnoSm2gZh34-45" value="" style="edgeStyle=orthogonalEdgeStyle;rounded=0;orthogonalLoop=1;jettySize=auto;html=1;" parent="1" source="GIsVJO59LhnoSm2gZh34-31" target="GIsVJO59LhnoSm2gZh34-44" edge="1">
          <mxGeometry relative="1" as="geometry" />
        </mxCell>
        <mxCell id="GIsVJO59LhnoSm2gZh34-31" value="Print &quot;Input Exam Score&quot;" style="shape=parallelogram;perimeter=parallelogramPerimeter;whiteSpace=wrap;html=1;fixedSize=1;" parent="1" vertex="1">
          <mxGeometry x="365" y="960" width="120" height="60" as="geometry" />
        </mxCell>
        <mxCell id="GIsVJO59LhnoSm2gZh34-32" value="Input" style="whiteSpace=wrap;html=1;" parent="1" vertex="1">
          <mxGeometry x="565" y="250" width="120" height="60" as="geometry" />
        </mxCell>
        <mxCell id="GIsVJO59LhnoSm2gZh34-34" value="Input" style="whiteSpace=wrap;html=1;" parent="1" vertex="1">
          <mxGeometry x="565" y="360" width="120" height="60" as="geometry" />
        </mxCell>
        <mxCell id="GIsVJO59LhnoSm2gZh34-36" value="Input" style="whiteSpace=wrap;html=1;" parent="1" vertex="1">
          <mxGeometry x="565" y="480" width="120" height="60" as="geometry" />
        </mxCell>
        <mxCell id="GIsVJO59LhnoSm2gZh34-38" value="Input" style="whiteSpace=wrap;html=1;" parent="1" vertex="1">
          <mxGeometry x="565" y="600" width="120" height="60" as="geometry" />
        </mxCell>
        <mxCell id="GIsVJO59LhnoSm2gZh34-40" value="Input" style="whiteSpace=wrap;html=1;" parent="1" vertex="1">
          <mxGeometry x="565" y="720" width="120" height="60" as="geometry" />
        </mxCell>
        <mxCell id="GIsVJO59LhnoSm2gZh34-42" value="Input" style="whiteSpace=wrap;html=1;" parent="1" vertex="1">
          <mxGeometry x="565" y="840" width="120" height="60" as="geometry" />
        </mxCell>
        <mxCell id="GIsVJO59LhnoSm2gZh34-44" value="Input" style="whiteSpace=wrap;html=1;" parent="1" vertex="1">
          <mxGeometry x="565" y="960" width="120" height="60" as="geometry" />
        </mxCell>
        <mxCell id="GIsVJO59LhnoSm2gZh34-46" value="Process" style="whiteSpace=wrap;html=1;" parent="1" vertex="1">
          <mxGeometry x="565" y="1080" width="120" height="60" as="geometry" />
        </mxCell>
        <mxCell id="GIsVJO59LhnoSm2gZh34-51" value="" style="edgeStyle=orthogonalEdgeStyle;rounded=0;orthogonalLoop=1;jettySize=auto;html=1;" parent="1" source="GIsVJO59LhnoSm2gZh34-48" target="GIsVJO59LhnoSm2gZh34-50" edge="1">
          <mxGeometry relative="1" as="geometry" />
        </mxCell>
        <mxCell id="GIsVJO59LhnoSm2gZh34-53" value="" style="edgeStyle=orthogonalEdgeStyle;rounded=0;orthogonalLoop=1;jettySize=auto;html=1;" parent="1" source="GIsVJO59LhnoSm2gZh34-48" target="GIsVJO59LhnoSm2gZh34-52" edge="1">
          <mxGeometry relative="1" as="geometry" />
        </mxCell>
        <mxCell id="GIsVJO59LhnoSm2gZh34-80" value="" style="edgeStyle=orthogonalEdgeStyle;rounded=0;orthogonalLoop=1;jettySize=auto;html=1;" parent="1" source="GIsVJO59LhnoSm2gZh34-48" target="GIsVJO59LhnoSm2gZh34-79" edge="1">
          <mxGeometry relative="1" as="geometry" />
        </mxCell>
        <mxCell id="GIsVJO59LhnoSm2gZh34-48" value="&lt;div&gt;&lt;font style=&quot;font-size: 12px;&quot;&gt;Declare variable&amp;nbsp;&lt;/font&gt;&lt;/div&gt;&lt;div&gt;&lt;font style=&quot;font-size: 12px;&quot;&gt;of the result (x)&lt;/font&gt;&lt;/div&gt;" style="shape=parallelogram;perimeter=parallelogramPerimeter;whiteSpace=wrap;html=1;fixedSize=1;" parent="1" vertex="1">
          <mxGeometry x="365" y="1200" width="120" height="60" as="geometry" />
        </mxCell>
        <mxCell id="GIsVJO59LhnoSm2gZh34-50" value="Input" style="whiteSpace=wrap;html=1;" parent="1" vertex="1">
          <mxGeometry x="565" y="1200" width="120" height="60" as="geometry" />
        </mxCell>
        <mxCell id="GIsVJO59LhnoSm2gZh34-55" value="" style="edgeStyle=orthogonalEdgeStyle;rounded=0;orthogonalLoop=1;jettySize=auto;html=1;" parent="1" source="GIsVJO59LhnoSm2gZh34-52" target="GIsVJO59LhnoSm2gZh34-54" edge="1">
          <mxGeometry relative="1" as="geometry" />
        </mxCell>
        <mxCell id="GIsVJO59LhnoSm2gZh34-74" value="" style="edgeStyle=orthogonalEdgeStyle;rounded=0;orthogonalLoop=1;jettySize=auto;html=1;" parent="1" source="GIsVJO59LhnoSm2gZh34-52" target="GIsVJO59LhnoSm2gZh34-73" edge="1">
          <mxGeometry relative="1" as="geometry" />
        </mxCell>
        <mxCell id="GIsVJO59LhnoSm2gZh34-52" value="&lt;div style=&quot;font-size: 11px;&quot;&gt;&lt;font style=&quot;font-size: 11px;&quot;&gt;Is x&amp;gt;80&lt;/font&gt;&lt;/div&gt;&lt;div style=&quot;font-size: 11px;&quot;&gt;&lt;font style=&quot;font-size: 11px;&quot;&gt;&amp;amp;&lt;/font&gt;&lt;/div&gt;&lt;div style=&quot;font-size: 11px;&quot;&gt;&lt;font style=&quot;font-size: 11px;&quot;&gt;x=100&amp;gt;&lt;br&gt;&lt;/font&gt;&lt;/div&gt;" style="rhombus;whiteSpace=wrap;html=1;" parent="1" vertex="1">
          <mxGeometry x="375" y="1420" width="100" height="100" as="geometry" />
        </mxCell>
        <mxCell id="GIsVJO59LhnoSm2gZh34-57" value="" style="edgeStyle=orthogonalEdgeStyle;rounded=0;orthogonalLoop=1;jettySize=auto;html=1;" parent="1" source="GIsVJO59LhnoSm2gZh34-54" target="GIsVJO59LhnoSm2gZh34-56" edge="1">
          <mxGeometry relative="1" as="geometry" />
        </mxCell>
        <mxCell id="GIsVJO59LhnoSm2gZh34-82" value="" style="edgeStyle=orthogonalEdgeStyle;rounded=0;orthogonalLoop=1;jettySize=auto;html=1;" parent="1" source="GIsVJO59LhnoSm2gZh34-54" target="GIsVJO59LhnoSm2gZh34-81" edge="1">
          <mxGeometry relative="1" as="geometry" />
        </mxCell>
        <mxCell id="GIsVJO59LhnoSm2gZh34-54" value="&lt;div&gt;Is x&amp;gt;73&lt;/div&gt;&lt;div&gt;&amp;amp;&lt;/div&gt;&lt;div&gt;x &amp;lt;=80?&lt;br&gt;&lt;/div&gt;" style="rhombus;whiteSpace=wrap;html=1;" parent="1" vertex="1">
          <mxGeometry x="375" y="1560" width="100" height="100" as="geometry" />
        </mxCell>
        <mxCell id="GIsVJO59LhnoSm2gZh34-59" value="" style="edgeStyle=orthogonalEdgeStyle;rounded=0;orthogonalLoop=1;jettySize=auto;html=1;" parent="1" source="GIsVJO59LhnoSm2gZh34-56" target="GIsVJO59LhnoSm2gZh34-58" edge="1">
          <mxGeometry relative="1" as="geometry" />
        </mxCell>
        <mxCell id="GIsVJO59LhnoSm2gZh34-86" value="" style="edgeStyle=orthogonalEdgeStyle;rounded=0;orthogonalLoop=1;jettySize=auto;html=1;" parent="1" source="GIsVJO59LhnoSm2gZh34-56" target="GIsVJO59LhnoSm2gZh34-85" edge="1">
          <mxGeometry relative="1" as="geometry" />
        </mxCell>
        <mxCell id="GIsVJO59LhnoSm2gZh34-56" value="&lt;div&gt;Is x&amp;gt;65&lt;/div&gt;&lt;div&gt;&amp;amp;&lt;/div&gt;&lt;div&gt;x&amp;lt;=73?&lt;br&gt;&lt;/div&gt;" style="rhombus;whiteSpace=wrap;html=1;" parent="1" vertex="1">
          <mxGeometry x="375" y="1700" width="100" height="100" as="geometry" />
        </mxCell>
        <mxCell id="GIsVJO59LhnoSm2gZh34-61" value="" style="edgeStyle=orthogonalEdgeStyle;rounded=0;orthogonalLoop=1;jettySize=auto;html=1;" parent="1" source="GIsVJO59LhnoSm2gZh34-58" target="GIsVJO59LhnoSm2gZh34-60" edge="1">
          <mxGeometry relative="1" as="geometry" />
        </mxCell>
        <mxCell id="GIsVJO59LhnoSm2gZh34-88" value="" style="edgeStyle=orthogonalEdgeStyle;rounded=0;orthogonalLoop=1;jettySize=auto;html=1;" parent="1" source="GIsVJO59LhnoSm2gZh34-58" target="GIsVJO59LhnoSm2gZh34-87" edge="1">
          <mxGeometry relative="1" as="geometry" />
        </mxCell>
        <mxCell id="GIsVJO59LhnoSm2gZh34-58" value="&lt;div&gt;Is x&amp;gt;60&lt;/div&gt;&lt;div&gt;&amp;amp;&lt;/div&gt;&lt;div&gt;x&amp;lt;=65?&lt;br&gt;&lt;/div&gt;" style="rhombus;whiteSpace=wrap;html=1;" parent="1" vertex="1">
          <mxGeometry x="375" y="1840" width="100" height="100" as="geometry" />
        </mxCell>
        <mxCell id="GIsVJO59LhnoSm2gZh34-65" value="" style="edgeStyle=orthogonalEdgeStyle;rounded=0;orthogonalLoop=1;jettySize=auto;html=1;" parent="1" source="GIsVJO59LhnoSm2gZh34-60" target="GIsVJO59LhnoSm2gZh34-64" edge="1">
          <mxGeometry relative="1" as="geometry" />
        </mxCell>
        <mxCell id="GIsVJO59LhnoSm2gZh34-90" value="" style="edgeStyle=orthogonalEdgeStyle;rounded=0;orthogonalLoop=1;jettySize=auto;html=1;" parent="1" source="GIsVJO59LhnoSm2gZh34-60" target="GIsVJO59LhnoSm2gZh34-89" edge="1">
          <mxGeometry relative="1" as="geometry" />
        </mxCell>
        <mxCell id="GIsVJO59LhnoSm2gZh34-60" value="&lt;div&gt;Is x&amp;gt;50&lt;/div&gt;&lt;div&gt;&amp;amp;&lt;/div&gt;&lt;div&gt;x&amp;lt;=60?&lt;br&gt;&lt;/div&gt;" style="rhombus;whiteSpace=wrap;html=1;" parent="1" vertex="1">
          <mxGeometry x="375" y="1980" width="100" height="100" as="geometry" />
        </mxCell>
        <mxCell id="GIsVJO59LhnoSm2gZh34-67" value="" style="edgeStyle=orthogonalEdgeStyle;rounded=0;orthogonalLoop=1;jettySize=auto;html=1;" parent="1" source="GIsVJO59LhnoSm2gZh34-64" target="GIsVJO59LhnoSm2gZh34-66" edge="1">
          <mxGeometry relative="1" as="geometry" />
        </mxCell>
        <mxCell id="GIsVJO59LhnoSm2gZh34-92" value="" style="edgeStyle=orthogonalEdgeStyle;rounded=0;orthogonalLoop=1;jettySize=auto;html=1;" parent="1" source="GIsVJO59LhnoSm2gZh34-64" target="GIsVJO59LhnoSm2gZh34-91" edge="1">
          <mxGeometry relative="1" as="geometry" />
        </mxCell>
        <mxCell id="GIsVJO59LhnoSm2gZh34-64" value="&lt;div&gt;Is x&amp;gt;39&lt;/div&gt;&lt;div&gt;&amp;amp;&lt;/div&gt;&lt;div&gt;x&amp;lt;=50?&lt;br&gt;&lt;/div&gt;" style="rhombus;whiteSpace=wrap;html=1;" parent="1" vertex="1">
          <mxGeometry x="375" y="2120" width="100" height="100" as="geometry" />
        </mxCell>
        <mxCell id="GIsVJO59LhnoSm2gZh34-84" value="" style="edgeStyle=orthogonalEdgeStyle;rounded=0;orthogonalLoop=1;jettySize=auto;html=1;" parent="1" source="GIsVJO59LhnoSm2gZh34-66" target="GIsVJO59LhnoSm2gZh34-83" edge="1">
          <mxGeometry relative="1" as="geometry" />
        </mxCell>
        <mxCell id="GIsVJO59LhnoSm2gZh34-66" value="Is x&amp;lt;=39?" style="rhombus;whiteSpace=wrap;html=1;" parent="1" vertex="1">
          <mxGeometry x="375" y="2260" width="100" height="100" as="geometry" />
        </mxCell>
        <mxCell id="GIsVJO59LhnoSm2gZh34-68" value="No" style="text;html=1;align=center;verticalAlign=middle;resizable=0;points=[];autosize=1;strokeColor=none;fillColor=none;" parent="1" vertex="1">
          <mxGeometry x="385" y="1520" width="40" height="30" as="geometry" />
        </mxCell>
        <mxCell id="GIsVJO59LhnoSm2gZh34-69" value="No" style="text;html=1;align=center;verticalAlign=middle;resizable=0;points=[];autosize=1;strokeColor=none;fillColor=none;" parent="1" vertex="1">
          <mxGeometry x="385" y="1660" width="40" height="30" as="geometry" />
        </mxCell>
        <mxCell id="GIsVJO59LhnoSm2gZh34-70" value="No" style="text;html=1;align=center;verticalAlign=middle;resizable=0;points=[];autosize=1;strokeColor=none;fillColor=none;" parent="1" vertex="1">
          <mxGeometry x="385" y="1800" width="40" height="30" as="geometry" />
        </mxCell>
        <mxCell id="GIsVJO59LhnoSm2gZh34-71" value="No" style="text;html=1;align=center;verticalAlign=middle;resizable=0;points=[];autosize=1;strokeColor=none;fillColor=none;" parent="1" vertex="1">
          <mxGeometry x="385" y="2080" width="40" height="30" as="geometry" />
        </mxCell>
        <mxCell id="GIsVJO59LhnoSm2gZh34-72" value="No" style="text;html=1;align=center;verticalAlign=middle;resizable=0;points=[];autosize=1;strokeColor=none;fillColor=none;" parent="1" vertex="1">
          <mxGeometry x="385" y="2220" width="40" height="30" as="geometry" />
        </mxCell>
        <mxCell id="GIsVJO59LhnoSm2gZh34-97" style="edgeStyle=orthogonalEdgeStyle;rounded=0;orthogonalLoop=1;jettySize=auto;html=1;entryX=0.5;entryY=0;entryDx=0;entryDy=0;" parent="1" source="GIsVJO59LhnoSm2gZh34-73" target="GIsVJO59LhnoSm2gZh34-95" edge="1">
          <mxGeometry relative="1" as="geometry" />
        </mxCell>
        <mxCell id="GIsVJO59LhnoSm2gZh34-73" value="&lt;div&gt;Set&lt;/div&gt;&lt;div&gt;Alphabetic score = A&lt;/div&gt;&lt;div&gt;Qualification = Very Good&lt;br&gt;&lt;/div&gt;" style="whiteSpace=wrap;html=1;" parent="1" vertex="1">
          <mxGeometry x="545" y="1440" width="120" height="60" as="geometry" />
        </mxCell>
        <mxCell id="GIsVJO59LhnoSm2gZh34-79" value="&lt;div&gt;Declare Variable&lt;/div&gt;&lt;div&gt;Alphabetic Score&lt;br&gt;&amp;amp;&lt;/div&gt;&lt;div&gt;Qualification&lt;br&gt;&lt;/div&gt;" style="whiteSpace=wrap;html=1;" parent="1" vertex="1">
          <mxGeometry x="365" y="1300" width="120" height="80" as="geometry" />
        </mxCell>
        <mxCell id="GIsVJO59LhnoSm2gZh34-98" style="edgeStyle=orthogonalEdgeStyle;rounded=0;orthogonalLoop=1;jettySize=auto;html=1;entryX=0.5;entryY=0;entryDx=0;entryDy=0;" parent="1" source="GIsVJO59LhnoSm2gZh34-81" target="GIsVJO59LhnoSm2gZh34-95" edge="1">
          <mxGeometry relative="1" as="geometry">
            <mxPoint x="830" y="2270" as="targetPoint" />
          </mxGeometry>
        </mxCell>
        <mxCell id="GIsVJO59LhnoSm2gZh34-81" value="&lt;div&gt;Set&lt;/div&gt;&lt;div&gt;Alphabetic Score = B+&lt;/div&gt;&lt;div&gt;Qualification = More than Good&lt;br&gt;&lt;/div&gt;" style="whiteSpace=wrap;html=1;" parent="1" vertex="1">
          <mxGeometry x="545" y="1570" width="120" height="80" as="geometry" />
        </mxCell>
        <mxCell id="GIsVJO59LhnoSm2gZh34-96" value="" style="edgeStyle=orthogonalEdgeStyle;rounded=0;orthogonalLoop=1;jettySize=auto;html=1;" parent="1" source="GIsVJO59LhnoSm2gZh34-83" target="GIsVJO59LhnoSm2gZh34-95" edge="1">
          <mxGeometry relative="1" as="geometry" />
        </mxCell>
        <mxCell id="GIsVJO59LhnoSm2gZh34-83" value="&lt;div&gt;Set&lt;/div&gt;&lt;div&gt;Alphabetic Score = E&lt;/div&gt;&lt;div&gt;Qualification = Failed&lt;br&gt;&lt;/div&gt;" style="whiteSpace=wrap;html=1;" parent="1" vertex="1">
          <mxGeometry x="545" y="2280" width="120" height="60" as="geometry" />
        </mxCell>
        <mxCell id="GIsVJO59LhnoSm2gZh34-99" style="edgeStyle=orthogonalEdgeStyle;rounded=0;orthogonalLoop=1;jettySize=auto;html=1;entryX=0.5;entryY=0;entryDx=0;entryDy=0;" parent="1" source="GIsVJO59LhnoSm2gZh34-85" target="GIsVJO59LhnoSm2gZh34-95" edge="1">
          <mxGeometry relative="1" as="geometry" />
        </mxCell>
        <mxCell id="GIsVJO59LhnoSm2gZh34-85" value="&lt;div&gt;Set&lt;/div&gt;&lt;div&gt;Alphabetic Score = B&lt;/div&gt;&lt;div&gt;Qualification = Good&lt;br&gt;&lt;/div&gt;" style="whiteSpace=wrap;html=1;" parent="1" vertex="1">
          <mxGeometry x="545" y="1720" width="120" height="60" as="geometry" />
        </mxCell>
        <mxCell id="GIsVJO59LhnoSm2gZh34-100" style="edgeStyle=orthogonalEdgeStyle;rounded=0;orthogonalLoop=1;jettySize=auto;html=1;entryX=0.5;entryY=0;entryDx=0;entryDy=0;" parent="1" source="GIsVJO59LhnoSm2gZh34-87" target="GIsVJO59LhnoSm2gZh34-95" edge="1">
          <mxGeometry relative="1" as="geometry">
            <mxPoint x="830" y="2270" as="targetPoint" />
          </mxGeometry>
        </mxCell>
        <mxCell id="GIsVJO59LhnoSm2gZh34-87" value="&lt;div&gt;Set&lt;/div&gt;&lt;div&gt;Alphabetic Score = C+&lt;/div&gt;&lt;div&gt;Qualification = More Than Enough&lt;br&gt;&lt;/div&gt;" style="whiteSpace=wrap;html=1;" parent="1" vertex="1">
          <mxGeometry x="545" y="1850" width="120" height="80" as="geometry" />
        </mxCell>
        <mxCell id="GIsVJO59LhnoSm2gZh34-101" style="edgeStyle=orthogonalEdgeStyle;rounded=0;orthogonalLoop=1;jettySize=auto;html=1;entryX=0.5;entryY=0;entryDx=0;entryDy=0;" parent="1" source="GIsVJO59LhnoSm2gZh34-89" target="GIsVJO59LhnoSm2gZh34-95" edge="1">
          <mxGeometry relative="1" as="geometry" />
        </mxCell>
        <mxCell id="GIsVJO59LhnoSm2gZh34-89" value="&lt;div&gt;Set&lt;/div&gt;&lt;div&gt;Alphabetic Score = C&lt;/div&gt;&lt;div&gt;Qualification = Enough&lt;br&gt;&lt;/div&gt;" style="whiteSpace=wrap;html=1;" parent="1" vertex="1">
          <mxGeometry x="545" y="2000" width="120" height="60" as="geometry" />
        </mxCell>
        <mxCell id="GIsVJO59LhnoSm2gZh34-102" style="edgeStyle=orthogonalEdgeStyle;rounded=0;orthogonalLoop=1;jettySize=auto;html=1;entryX=0.5;entryY=0;entryDx=0;entryDy=0;" parent="1" source="GIsVJO59LhnoSm2gZh34-91" target="GIsVJO59LhnoSm2gZh34-95" edge="1">
          <mxGeometry relative="1" as="geometry">
            <mxPoint x="830" y="2270" as="targetPoint" />
          </mxGeometry>
        </mxCell>
        <mxCell id="GIsVJO59LhnoSm2gZh34-91" value="&lt;div&gt;Set&lt;/div&gt;&lt;div&gt;Alphabetic Score = D&lt;/div&gt;&lt;div&gt;Qualification = Not Enough&lt;br&gt;&lt;/div&gt;" style="whiteSpace=wrap;html=1;" parent="1" vertex="1">
          <mxGeometry x="545" y="2140" width="120" height="60" as="geometry" />
        </mxCell>
        <mxCell id="GIsVJO59LhnoSm2gZh34-104" value="" style="edgeStyle=orthogonalEdgeStyle;rounded=0;orthogonalLoop=1;jettySize=auto;html=1;" parent="1" source="GIsVJO59LhnoSm2gZh34-95" target="GIsVJO59LhnoSm2gZh34-103" edge="1">
          <mxGeometry relative="1" as="geometry" />
        </mxCell>
        <mxCell id="GIsVJO59LhnoSm2gZh34-95" value="&lt;div&gt;Print&lt;/div&gt;&lt;div&gt;A student named &quot;Name &quot; (NIM &quot;NIM&quot;) in class &quot;Class&quot; with an ID number &quot;ID Number&quot;&lt;br&gt;&lt;/div&gt;" style="whiteSpace=wrap;html=1;" parent="1" vertex="1">
          <mxGeometry x="745" y="2270" width="175" height="80" as="geometry" />
        </mxCell>
        <mxCell id="GIsVJO59LhnoSm2gZh34-106" value="" style="edgeStyle=orthogonalEdgeStyle;rounded=0;orthogonalLoop=1;jettySize=auto;html=1;" parent="1" source="GIsVJO59LhnoSm2gZh34-103" target="GIsVJO59LhnoSm2gZh34-105" edge="1">
          <mxGeometry relative="1" as="geometry" />
        </mxCell>
        <mxCell id="GIsVJO59LhnoSm2gZh34-103" value="&lt;div&gt;Print&lt;/div&gt;&lt;div&gt;Final Grade: &quot;Final Grade&quot;&lt;br&gt;&lt;/div&gt;" style="whiteSpace=wrap;html=1;" parent="1" vertex="1">
          <mxGeometry x="772.5" y="2420" width="120" height="60" as="geometry" />
        </mxCell>
        <mxCell id="GIsVJO59LhnoSm2gZh34-108" value="" style="edgeStyle=orthogonalEdgeStyle;rounded=0;orthogonalLoop=1;jettySize=auto;html=1;" parent="1" source="GIsVJO59LhnoSm2gZh34-105" target="GIsVJO59LhnoSm2gZh34-107" edge="1">
          <mxGeometry relative="1" as="geometry" />
        </mxCell>
        <mxCell id="GIsVJO59LhnoSm2gZh34-105" value="&lt;div&gt;Print&lt;/div&gt;&lt;div&gt;The alphabetic grade is: &quot;Alphabetic Score&quot; &lt;br&gt;&lt;/div&gt;" style="whiteSpace=wrap;html=1;" parent="1" vertex="1">
          <mxGeometry x="772.5" y="2550" width="120" height="60" as="geometry" />
        </mxCell>
        <mxCell id="pCcU-GzVdlDXDMoZ8liL-2" value="" style="edgeStyle=orthogonalEdgeStyle;rounded=0;orthogonalLoop=1;jettySize=auto;html=1;" edge="1" parent="1" source="GIsVJO59LhnoSm2gZh34-107">
          <mxGeometry relative="1" as="geometry">
            <mxPoint x="832.5" y="2820" as="targetPoint" />
          </mxGeometry>
        </mxCell>
        <mxCell id="GIsVJO59LhnoSm2gZh34-107" value="&lt;div&gt;Print&lt;/div&gt;&lt;div&gt;The Qualification is: &quot;Qualification&quot;&lt;br&gt;&lt;/div&gt;" style="whiteSpace=wrap;html=1;" parent="1" vertex="1">
          <mxGeometry x="772.5" y="2690" width="120" height="60" as="geometry" />
        </mxCell>
        <mxCell id="GIsVJO59LhnoSm2gZh34-109" value="Yes" style="text;html=1;align=center;verticalAlign=middle;resizable=0;points=[];autosize=1;strokeColor=none;fillColor=none;" parent="1" vertex="1">
          <mxGeometry x="485" y="1440" width="40" height="30" as="geometry" />
        </mxCell>
        <mxCell id="GIsVJO59LhnoSm2gZh34-110" value="Yes" style="text;html=1;align=center;verticalAlign=middle;resizable=0;points=[];autosize=1;strokeColor=none;fillColor=none;" parent="1" vertex="1">
          <mxGeometry x="485" y="1580" width="40" height="30" as="geometry" />
        </mxCell>
        <mxCell id="GIsVJO59LhnoSm2gZh34-111" value="Yes" style="text;html=1;align=center;verticalAlign=middle;resizable=0;points=[];autosize=1;strokeColor=none;fillColor=none;" parent="1" vertex="1">
          <mxGeometry x="485" y="1720" width="40" height="30" as="geometry" />
        </mxCell>
        <mxCell id="GIsVJO59LhnoSm2gZh34-112" value="Yes" style="text;html=1;align=center;verticalAlign=middle;resizable=0;points=[];autosize=1;strokeColor=none;fillColor=none;" parent="1" vertex="1">
          <mxGeometry x="485" y="1860" width="40" height="30" as="geometry" />
        </mxCell>
        <mxCell id="GIsVJO59LhnoSm2gZh34-113" value="Yes" style="text;html=1;align=center;verticalAlign=middle;resizable=0;points=[];autosize=1;strokeColor=none;fillColor=none;" parent="1" vertex="1">
          <mxGeometry x="485" y="2000" width="40" height="30" as="geometry" />
        </mxCell>
        <mxCell id="GIsVJO59LhnoSm2gZh34-114" value="Yes" style="text;html=1;align=center;verticalAlign=middle;resizable=0;points=[];autosize=1;strokeColor=none;fillColor=none;" parent="1" vertex="1">
          <mxGeometry x="485" y="2140" width="40" height="30" as="geometry" />
        </mxCell>
        <mxCell id="GIsVJO59LhnoSm2gZh34-115" value="Yes" style="text;html=1;align=center;verticalAlign=middle;resizable=0;points=[];autosize=1;strokeColor=none;fillColor=none;" parent="1" vertex="1">
          <mxGeometry x="485" y="2280" width="40" height="30" as="geometry" />
        </mxCell>
        <mxCell id="pCcU-GzVdlDXDMoZ8liL-3" value="DONE" style="ellipse;whiteSpace=wrap;html=1;" vertex="1" parent="1">
          <mxGeometry x="772.5" y="2820" width="120" height="80" as="geometry" />
        </mxCell>
      </root>
    </mxGraphModel>
  </diagram>
</mxfile>
